<svg xmlns="http://www.w3.org/2000/svg" xmlns:xlink="http://www.w3.org/1999/xlink" width="11.245" height="18.992" enable-background="new 0 0 11.245 18.992" overflow="visible" viewBox="0 0 11.245 18.992" xml:space="preserve"><metadata><variableSets xmlns="http://ns.adobe.com/Variables/1.0/"><variableSet locked="none" varSetName="binding1"><variables/><v:sampleDataSets xmlns="http://ns.adobe.com/GenericCustomNamespace/1.0/" xmlns:v="http://ns.adobe.com/Variables/1.0/"/></variableSet></variableSets><sfw xmlns="http://ns.adobe.com/SaveForWeb/1.0/"><slices/><sliceSourceBounds width="11.245" height="18.992" x="292.49" y="410.938" bottomLeftOrigin="true"/></sfw><?xpacket begin='﻿' id='W5M0MpCehiHzreSzNTczkc9d'?><?xpacket end='w'?></metadata><g id="Layer_1"><g><path d="M2.63,18.992c-0.302-0.324-0.521-0.646-0.659-0.967c-0.139-0.32-0.206-0.67-0.206-1.049 c0-0.551,0.223-1.518,0.67-2.9c0.444-1.383,1.171-3.336,2.174-5.868c-0.38-0.881-0.662-1.784-0.845-2.709 C3.579,4.574,3.447,4.111,3.364,4.111c-0.027,0-0.048,0.002-0.062,0.005C3.288,4.12,3.278,4.125,3.271,4.133 C3.037,4.256,2.817,4.348,2.611,4.405c-0.207,0.06-0.41,0.089-0.608,0.089c-0.571,0-1.047-0.213-1.429-0.638 C0.19,3.432,0,2.896,0,2.247c0-0.663,0.203-1.202,0.609-1.62C1.014,0.209,1.538,0,2.178,0c0.675,0,1.191,0.265,1.554,0.792 C4.091,1.317,4.272,2.078,4.272,3.07v0.838c0,0.925,0.1,1.591,0.302,2.001c0.2,0.409,0.551,0.697,1.054,0.863 C6.12,6.614,6.469,6.326,6.671,5.909c0.2-0.417,0.302-1.085,0.302-2.001V3.07c0-0.992,0.18-1.753,0.541-2.278 C7.871,0.265,8.388,0,9.063,0c0.641,0,1.164,0.209,1.57,0.627c0.407,0.418,0.611,0.957,0.611,1.62 c0,0.648-0.191,1.185-0.573,1.609c-0.383,0.425-0.861,0.638-1.434,0.638c-0.199,0-0.402-0.029-0.609-0.089 C8.422,4.348,8.202,4.256,7.967,4.133C7.953,4.125,7.94,4.12,7.927,4.116C7.911,4.113,7.898,4.111,7.885,4.111 c-0.091,0-0.226,0.463-0.406,1.388C7.295,6.424,7.017,7.327,6.637,8.208c1.031,2.62,1.764,4.6,2.195,5.942 c0.435,1.34,0.65,2.281,0.65,2.826c0,0.371-0.07,0.723-0.206,1.049c-0.138,0.328-0.358,0.648-0.66,0.967l-2.988-8.055 L2.63,18.992z M2.125,3.806c0.419,0,0.763-0.139,1.029-0.415C3.423,3.114,3.556,2.76,3.556,2.324 c0-0.468-0.139-0.859-0.422-1.17c-0.281-0.311-0.632-0.465-1.05-0.465c-0.42,0-0.762,0.145-1.025,0.43 c-0.265,0.285-0.396,0.66-0.396,1.123c0,0.447,0.14,0.82,0.418,1.117C1.357,3.655,1.706,3.806,2.125,3.806z M9.117,3.806 c0.417,0,0.766-0.15,1.045-0.446c0.282-0.297,0.423-0.67,0.423-1.117c0-0.463-0.134-0.838-0.401-1.123 c-0.267-0.285-0.607-0.43-1.024-0.43c-0.438,0-0.796,0.152-1.075,0.455c-0.281,0.303-0.422,0.696-0.422,1.18 c0,0.441,0.137,0.799,0.405,1.072C8.34,3.668,8.687,3.806,9.117,3.806z"/></g></g></svg>