<svg xmlns="http://www.w3.org/2000/svg" xmlns:xlink="http://www.w3.org/1999/xlink" width="22.047" height="22.046" enable-background="new 0 0 22.047 22.046" overflow="visible" viewBox="0 0 22.047 22.046" xml:space="preserve"><g id="Layer_1"><path fill="#FFF" stroke="#000" stroke-width="1.5" d="M10.26,11.787c1.106,1.105,1.108,2.902,0,4.01l-3.373,3.373 c-1.108,1.105-2.901,1.105-4.01,0l0,0c-1.106-1.109-1.106-2.902,0-4.01l3.373-3.373C7.358,10.68,9.153,10.68,10.26,11.787 L10.26,11.787z"/><path fill="#FFF" stroke="#000" stroke-width="1.5" d="M19.17,2.877c1.107,1.107,1.107,2.902,0.001,4.01l-3.375,3.373 c-1.106,1.107-2.901,1.107-4.008,0l0,0c-1.108-1.107-1.108-2.902,0-4.01l3.372-3.373C16.268,1.77,18.062,1.77,19.17,2.877 L19.17,2.877z"/><line x1="8.383" x2="13.665" y1="13.664" y2="8.382" fill="none" stroke="#FFF" stroke-linecap="round" stroke-width="2"/><line x1="1" x2="6.282" y1="21.046" y2="15.763" fill="none" stroke="#FFF" stroke-linecap="round" stroke-width="2"/><line x1="15.766" x2="21.047" y1="6.282" y2="1" fill="none" stroke="#FFF" stroke-linecap="round" stroke-width="2"/><line x1="8.383" x2="13.665" y1="13.664" y2="8.382" fill="none" stroke="#000" stroke-linecap="round" stroke-width="1.5"/><line x1="1" x2="6.282" y1="21.046" y2="15.763" fill="none" stroke="#000" stroke-linecap="round" stroke-width="1.5"/><line x1="15.766" x2="21.047" y1="6.282" y2="1" fill="none" stroke="#000" stroke-linecap="round" stroke-width="1.5"/></g></svg>