<svg xmlns="http://www.w3.org/2000/svg" xmlns:svg="http://www.w3.org/2000/svg" id="svg2" width="50" height="50" version="1.0"><metadata id="metadata7"/><g id="layer1"><path style="fill:#fff;fill-opacity:.82352942;stroke-width:1.29100001000000009;stroke-miterlimit:4;stroke-dasharray:none" id="path2385" d="M 96.356274,56.680161 A 42.51012,42.51012 0 1 1 11.336033,56.680161 A 42.51012,42.51012 0 1 1 96.356274,56.680161 z" transform="matrix(0.5880952,0,0,0.5880952,-6.666667,-8.333333)"/><path style="fill:red;fill-opacity:1;stroke-width:1.29100001;stroke-miterlimit:4;stroke-dasharray:none" id="path3157" d="M 25,0 C 11.2,0 2.4725014e-15,11.2 0,25 C -1.1564823e-18,38.8 11.2,50 25,50 C 38.8,50 50,38.8 50,25 C 50,11.2 38.8,0 25,0 z M 25,5 C 36.04,5 45,13.96 45,25 C 45,36.04 36.04,45 25,45 C 13.96,45 5,36.04 5,25 C 5,13.96 13.96,5 25,5 z"/></g></svg>