<svg xmlns="http://www.w3.org/2000/svg" xmlns:svg="http://www.w3.org/2000/svg" id="svg2383" width="24" height="24" version="1.0"><metadata id="metadata2388"/><g id="layer1"><path style="fill:#adadad;fill-opacity:1;stroke:none" id="rect3163" d="M 0.890625,0 C 0.39202498,0 0,0.39202498 0,0.890625 l 0,22.21875 C 0,23.607975 0.39202498,24 0.890625,24 l 22.21875,0 C 23.607975,24 24,23.607976 24,23.109375 l 0,-2.0625 -1.21875,0 0,-1.476563 1.21875,0 0,-18.679687 C 24,0.39202498 23.607976,0 23.109375,0 L 0.890625,0 z M 12,8.0390625 c 2.181321,0 3.960938,1.7796165 3.960938,3.9609375 0,2.181321 -1.779617,3.960938 -3.960938,3.960938 C 9.818679,15.960938 8.0390625,14.181321 8.0390625,12 8.0390625,9.818679 9.818679,8.0390625 12,8.0390625 z"/><path style="fill:none;stroke:#c1b2b2;stroke-width:1.89999998000000003;stroke-miterlimit:4;stroke-opacity:1;stroke-dasharray:none" id="path3170" d="m 4.5544651,16.550539 a 5.8047104,5.8047104 0 1 1 -11.6094208,0 5.8047104,5.8047104 0 1 1 11.6094208,0 z" transform="matrix(0.68076923,0,0,0.68076923,12.851128,0.7329024)"/><rect style="fill:none;stroke:#c1b3b3;stroke-width:1.4249999499999999;stroke-miterlimit:4;stroke-opacity:1;stroke-dasharray:none" id="rect3175" width=".938" height="4.755" x="11.531" y="1.429" rx=".675"/><path style="fill:#c4b0b0;fill-opacity:1;stroke:none" id="path3177" d="m 7.054956,10.433268 a 0.22325809,0.22325809 0 1 1 -0.4465162,0 0.22325809,0.22325809 0 1 1 0.4465162,0 z" transform="matrix(1.9500001,0,0,1.9500001,-7.930128,-12.252012)"/><rect style="fill:#eaeded;fill-opacity:1;stroke:none" id="rect3179" width="9.802" height="4.487" x="2.813" y="18.173" rx=".595"/></g></svg>