<svg xmlns="http://www.w3.org/2000/svg" xmlns:svg="http://www.w3.org/2000/svg" id="svg2383" width="24" height="24" version="1.0"><metadata id="metadata2388"/><g id="layer1"><g id="g2384" transform="scale(0.75,0.75)"><path id="rect3163" d="M 1.1875,0 C 0.52269997,0 -2.6888214e-17,0.52269997 0,1.1875 L 0,30.8125 C 0,31.4773 0.52269997,32 1.1875,32 L 30.8125,32 C 31.4773,32 32,31.477301 32,30.8125 L 32,28.0625 L 30.375,28.0625 L 30.375,26.09375 L 32,26.09375 L 32,1.1875 C 32,0.52269997 31.477301,-4.3657207e-17 30.8125,0 L 1.1875,0 z M 16,10.71875 C 18.908428,10.71875 21.28125,13.091572 21.28125,16 C 21.28125,18.908428 18.908428,21.28125 16,21.28125 C 13.091572,21.281251 10.71875,18.908428 10.71875,16 C 10.71875,13.091572 13.091572,10.71875 16,10.71875 z" style="fill:#292929;fill-opacity:1;stroke:none;stroke-width:1.89999998;stroke-miterlimit:4;stroke-dasharray:none;stroke-opacity:1"/><path id="path3170" d="M 4.5544651,16.550539 A 5.8047104,5.8047104 0 1 1 -7.0549557,16.550539 A 5.8047104,5.8047104 0 1 1 4.5544651,16.550539 z" transform="matrix(0.9076923,0,0,0.9076923,17.134838,0.9772032)" style="fill:none;fill-opacity:1;stroke:#816868;stroke-width:1.89999998;stroke-miterlimit:4;stroke-dasharray:none;stroke-opacity:1"/><rect id="rect3175" width="1.25" height="6.341" x="15.375" y="1.905" rx=".9" style="fill:none;fill-opacity:1;stroke:#816868;stroke-width:1.89999998;stroke-miterlimit:4;stroke-dasharray:none;stroke-opacity:1"/><path id="path3177" d="M 7.054956,10.433268 A 0.22325809,0.22325809 0 1 1 6.6084398,10.433268 A 0.22325809,0.22325809 0 1 1 7.054956,10.433268 z" transform="matrix(2.6000001,0,0,2.6000001,-10.573504,-16.336016)" style="fill:#523d3d;fill-opacity:1;stroke:none;stroke-width:1.89999998;stroke-miterlimit:4;stroke-dasharray:none;stroke-opacity:1"/><rect id="rect3179" width="13.069" height="5.983" x="3.751" y="24.231" rx=".793" style="fill:#eaeded;fill-opacity:1;stroke:none;stroke-width:1.89999998;stroke-miterlimit:4;stroke-dasharray:none;stroke-opacity:1"/></g></g></svg>