<svg width="16" height="15.71" viewBox="0 0 16 15.71"><g id="layer1"><path style="fill:#000;fill-opacity:.3;fill-rule:evenodd;stroke:none" id="rect2395" d="M 7.1875 0.4375 C 3.5583203 0.68135784 0.6403418 2.5439031 0.09375 4.90625 L 0 4.90625 L 0 9.3125 L 0 10.59375 L 0 12.6875 C 0 14.5157 1.4843 16 3.3125 16 L 12.6875 16 C 14.5157 16 16 14.5157 16 12.6875 L 16 10.59375 L 16 9.3125 L 16 4.90625 L 15.90625 4.90625 C 15.31917 2.3689146 12.002 0.43750001 8 0.4375 C 7.724 0.4375 7.4563281 0.41943646 7.1875 0.4375 z"/><path style="fill:#000;fill-opacity:.3;fill-rule:evenodd;stroke:none" id="rect2395" d="M 7.1875,15.991972 C 3.5583203,15.748114 0.6403418,13.885569 0.09375,11.523222 l -0.09375,0 0,-4.4062502 0,-1.28125 0,-2.09375 c 0,-1.8282 1.4843,-3.31250004 3.3125,-3.31250004 l 9.375,0 c 1.8282,0 3.3125,1.48430004 3.3125,3.31250004 l 0,2.09375 0,1.28125 0,4.4062502 -0.09375,0 C 15.31917,14.060557 12.002,15.991972 8,15.991972 c -0.276,0 -0.5436719,0.01806 -0.8125,0 z"/><circle cx="7.126" cy="6.613" r="3.625" fill="none" stroke="#FFF"/><line x1="9.188" x2="12.22" y1="9.582" y2="12.613" fill="none" stroke="#FFF" stroke-width="2"/></g></svg>