<svg xmlns="http://www.w3.org/2000/svg" xmlns:svg="http://www.w3.org/2000/svg" id="svg2383" width="18" height="18" x="0" y="0" enable-background="new 0 0 18 18" version="1.1" viewBox="0 0 18 18" xml:space="preserve"><metadata id="metadata3059"/><linearGradient id="SVGID_1_" x1="9.016" x2="9.016" y1="18.035" y2="0" gradientUnits="userSpaceOnUse"><stop style="stop-color:#08ff00;stop-opacity:1" id="stop3053" offset="0"/><stop style="stop-color:#66ff6f;stop-opacity:1" id="stop3055" offset="1"/></linearGradient><path id="path3057" fill="url(#SVGID_1_)" fill-rule="evenodd" d="M9.321,3.018L4.205,8.132c-0.226,0.226-0.226,0.589,0,0.813 l4.882,4.883c0.225,0.224,0.59,0.224,0.814,0l5.115-5.115l2.033,2.034l0.007,0.006c0.224,0.219,0.585,0.217,0.809-0.006 c0.122-0.122,0.177-0.284,0.166-0.443l-0.408-9.302c0.003-0.151-0.054-0.307-0.169-0.422c-0.117-0.117-0.272-0.174-0.426-0.168 L7.729,0.001c-0.16-0.009-0.322,0.047-0.443,0.168c-0.225,0.225-0.225,0.59,0,0.814L9.321,3.018z M3.017,10.137 c-0.225-0.225-0.588-0.225-0.813,0l-2.035,2.034c-0.225,0.224-0.225,0.589,0,0.813l4.882,4.883c0.225,0.224,0.59,0.224,0.814,0 l2.034-2.036c0.225-0.224,0.225-0.588,0-0.813L3.017,10.137z" clip-rule="evenodd"/></svg>