<svg xmlns="http://www.w3.org/2000/svg" xmlns:svg="http://www.w3.org/2000/svg" xmlns:xlink="http://www.w3.org/1999/xlink" id="svg2" width="580" height="580" version="1.0"><metadata id="metadata1976"/><defs id="defs4"><marker id="ArrowStart" markerHeight="3" markerUnits="strokeWidth" markerWidth="4" orient="auto" refX="10" refY="5" viewBox="0 0 10 10"><path id="path2111" d="M 10 0 L 0 5 L 10 10 z"/></marker><marker id="ArrowEnd" markerHeight="3" markerUnits="strokeWidth" markerWidth="4" orient="auto" refX="0" refY="5" viewBox="0 0 10 10"><path id="path2108" d="M 0 0 L 10 5 L 0 10 z"/></marker></defs><g id="g1327" style="fill:#734a08"><path style="fill:#734a08;stroke:#eee;stroke-width:3.40799998999999998" id="path1329" d="M 66.275,1.768 C 24.94,1.768 1.704,23.139 1.704,66.804 L 1.704,516.927 C 1.704,557.771 22.6,579.156 63.896,579.156 L 515.92,579.156 C 557.227,579.156 578.149,558.842 578.149,516.927 L 578.149,66.804 C 578.149,24.203 557.227,1.768 514.628,1.768 C 514.624,1.768 66.133,1.625 66.275,1.768 z"/></g><g id="g2117" transform="matrix(1.1975036,0,0,1.1975036,80.128205,34.575832)" style="fill:#000"><g id="g2119" style="fill:#000"><g id="g2121" style="fill:#000"><path id="path2125" style="fill:#000;stroke:none"/></g><g id="g2127" style="fill:#000"><path id="path2131" style="fill:#000;stroke:none"/></g></g></g><image id="image3356" width="239" height="190" x="-1801.193" y="573.995" xlink:href="/home/tomasz/Obrazy/firestation_pliki/pastedpic_10102008_233747.html"/><rect style="fill:#fff;fill-opacity:1;fill-rule:nonzero;stroke:none" id="rect3179" width="62.113" height="24.148" x="259.849" y="43.79"/><path style="fill:#fff;fill-opacity:1;fill-rule:nonzero;stroke:none" id="path3171" d="m 317.18789,298.78839 a 51.51778,49.497475 0 1 1 -103.03557,0 51.51778,49.497475 0 1 1 103.03557,0 z" clip-path="none" transform="matrix(1.8228464,0,0,1.6276548,-195.26953,-346.60639)"/><g id="g3233" transform="matrix(1.5460417,0,0,1.4653908,-130.91546,-263.4443)" style="fill:#fff;stroke:none"><rect id="rect3272" width="24.716" height="39.002" x="149.201" y="343.652" style="fill:#fff;fill-opacity:1;fill-rule:nonzero;stroke:none"/><rect id="rect3199" width="37.999" height="90.447" x="170.719" y="317.93" style="fill:#fff;fill-opacity:1;fill-rule:nonzero;stroke:none"/></g><g id="g3237" transform="matrix(-1.5558371,0,0,-1.4653908,716.18905,800.87734)" style="fill:#fff;stroke:none"><rect id="rect3239" width="24.716" height="39.002" x="149.201" y="343.652" style="fill:#fff;fill-opacity:1;fill-rule:nonzero;stroke:none"/><rect id="rect3241" width="37.999" height="90.447" x="170.719" y="317.93" style="fill:#fff;fill-opacity:1;fill-rule:nonzero;stroke:none"/></g><rect style="fill:#fff;fill-opacity:1;fill-rule:nonzero;stroke:none" id="rect3159" width="160.283" height="304.724" x="210.724" y="187.354"/><rect style="fill:#fff;fill-opacity:1;fill-rule:nonzero;stroke:none" id="rect3233" width="296.811" height="28.213" x="144.5" y="506.995"/><rect style="fill:#fff;fill-opacity:1;fill-rule:nonzero;stroke:none" id="rect3215" width="241.177" height="54.51" x="169.018" y="118.654" clip-path="none"/><rect style="fill:#734a08;fill-opacity:1;stroke:none" id="rect3246" width="190.471" height="16.403" x="197.866" y="173.304"/></svg>