<svg xmlns="http://www.w3.org/2000/svg" xmlns:svg="http://www.w3.org/2000/svg" xmlns:xlink="http://www.w3.org/1999/xlink" id="svg2" width="580" height="580" version="1.0"><metadata id="metadata2975"/><defs id="defs4"><symbol id="symbol-university" viewBox="244.5 110 489 219.9"><path id="path4460" d="M79,43l57,119c0,0,21-96,104-96s124,106,124,106l43-133l82-17L0,17L79,43z"/><path id="path4462" fill="none" stroke="#000" stroke-width="20" d="M94,176l-21,39"/><path id="path4464" d="M300,19c0,10.5-22.6,19-50.5,19S199,29.5,199,19s22.6-19,50.5-19S300,8.5,300,19z"/><path id="path4466" stroke="#000" stroke-width="20" d="M112,216l-16-38L64,88c0,0-9-8-4-35s16-24,16-24" ill="none"/></symbol><radialGradient id="radialGradient874" cx="180.245" cy="198.419" r="101.58" fx="180.245" fy="198.419" gradientTransform="scale(0.79354273,1.2601716)" gradientUnits="userSpaceOnUse" xlink:href="#linearGradient829"/><linearGradient id="linearGradient829"><stop style="stop-color:#fff;stop-opacity:.341667" id="stop830" offset="0"/><stop style="stop-color:#fff;stop-opacity:0" id="stop831" offset="1"/></linearGradient><radialGradient id="radialGradient832" cx="360.851" cy="167.474" r="46.395" fx="360.851" fy="167.474" gradientTransform="scale(1.007004,0.99304475)" gradientUnits="userSpaceOnUse" xlink:href="#linearGradient829"/><linearGradient id="linearGradient6826"><stop style="stop-color:#fff;stop-opacity:.341667" id="stop6828" offset="0"/><stop style="stop-color:#fff;stop-opacity:0" id="stop6830" offset="1"/></linearGradient><linearGradient id="linearGradient850" x1="465.294" x2="463.271" y1="248.245" y2="405.769" gradientTransform="scale(0.74491357,1.3424376)" gradientUnits="userSpaceOnUse" spreadMethod="pad" xlink:href="#linearGradient855"/><linearGradient id="linearGradient855"><stop style="stop-color:#fff;stop-opacity:0" id="stop856" offset="0"/><stop style="stop-color:#ffa617;stop-opacity:.733333" id="stop857" offset="1"/></linearGradient><linearGradient id="linearGradient854" x1="157.806" x2="155.406" y1="120.962" y2="231.635" gradientTransform="scale(1.4586159,0.68558144)" gradientUnits="userSpaceOnUse" xlink:href="#linearGradient855"/><linearGradient id="linearGradient6837"><stop style="stop-color:#fff;stop-opacity:0" id="stop6839" offset="0"/><stop style="stop-color:#ffa617;stop-opacity:.733333" id="stop6841" offset="1"/></linearGradient></defs><g id="g1327"><path style="fill:#111;stroke:#eee;stroke-width:3.40799999" id="path1329" d="M 66.275,1.768 C 24.94,1.768 1.704,23.139 1.704,66.804 L 1.704,516.927 C 1.704,557.771 22.599,579.156 63.896,579.156 L 515.92,579.156 C 557.227,579.156 578.149,558.841 578.149,516.927 L 578.149,66.804 C 578.149,24.203 557.227,1.768 514.628,1.768 C 514.624,1.768 66.133,1.625 66.275,1.768 z"/></g><g id="layer3" transform="matrix(48.14969,0,0,48.14969,-536.27327,-33.306752)" style="display:none;stroke:#757575;stroke-opacity:1"><rect style="fill:none;stroke:#757575;stroke-width:.10000000000000001;stroke-miterlimit:4;stroke-dasharray:none;stroke-opacity:1;display:inline" id="rect4134" width="10" height="10" x="1" y="1"/><rect style="fill:none;stroke:#757575;stroke-width:.10000000000000001;stroke-miterlimit:4;stroke-dasharray:none;stroke-opacity:1;display:inline" id="rect4136" width="8" height="8" x="2" y="2"/></g><path style="fill:#fff;fill-opacity:1;stroke:#fff;stroke-width:24.77176666;stroke-linecap:round;stroke-linejoin:round;stroke-miterlimit:4;stroke-opacity:1;stroke-dasharray:none;stroke-dashoffset:0" id="path10963" d="m 185.32788,127.75851 c -3.23609,0.0507 -6.43162,1.43026 -8.6877,3.75081 -2.25609,2.32056 -3.54518,5.55367 -3.50465,8.7899 l 0,239.58942 c -11.78888,-12.57045 -28.51172,-20.4367 -47.10506,-20.4367 -35.686611,0 -64.638831,28.91352 -64.638831,64.60012 0,35.6866 28.95222,64.63883 64.638831,64.63883 32.55354,0 65.94558,-20.7125 71.37365,-60.34248 0.175,-0.14252 0.57138,-6.70411 0.50317,-11.72788 l 0,-276.32131 c 0.0414,-3.30074 -1.30288,-6.59703 -3.64064,-8.9276 -2.33775,-2.33056 -5.63817,-3.66461 -8.93877,-3.61311 z"/><path style="fill:none;stroke:#fff;stroke-width:10;stroke-linecap:butt;stroke-linejoin:miter;stroke-opacity:1;stroke-miterlimit:4;stroke-dasharray:none;opacity:.3" id="path10992" d="M 39.059231,156.85833 L 546.82924,156.85833"/><path id="path10994" d="M 39.059231,216.85833 L 546.82924,216.85833" style="opacity:.3;fill:none;stroke:#fff;stroke-width:10;stroke-linecap:butt;stroke-linejoin:miter;stroke-miterlimit:4;stroke-opacity:1;stroke-dasharray:none"/><path style="opacity:.3;fill:none;stroke:#fff;stroke-width:10;stroke-linecap:butt;stroke-linejoin:miter;stroke-miterlimit:4;stroke-opacity:1;stroke-dasharray:none" id="path10996" d="M 39.059231,276.85833 L 546.82924,276.85833"/><path id="path10998" d="M 39.059231,336.85833 L 546.82924,336.85833" style="opacity:.3;fill:none;stroke:#fff;stroke-width:10;stroke-linecap:butt;stroke-linejoin:miter;stroke-miterlimit:4;stroke-opacity:1;stroke-dasharray:none"/><path style="opacity:.3;fill:none;stroke:#fff;stroke-width:10;stroke-linecap:butt;stroke-linejoin:miter;stroke-miterlimit:4;stroke-opacity:1;stroke-dasharray:none" id="path11000" d="M 39.059231,396.85833 L 546.82924,396.85833"/><path id="path11002" d="M 39.059231,456.85833 L 546.82924,456.85833" style="opacity:.3;fill:none;stroke:#fff;stroke-width:10;stroke-linecap:butt;stroke-linejoin:miter;stroke-miterlimit:4;stroke-opacity:1;stroke-dasharray:none"/><path style="opacity:.3;fill:none;stroke:#fff;stroke-width:10;stroke-linecap:butt;stroke-linejoin:miter;stroke-miterlimit:4;stroke-opacity:1;stroke-dasharray:none" id="path11004" d="M 39.059231,516.85833 L 546.82924,516.85833"/><path style="fill:#fff" id="path2209" d="m 562.78849,99.728639 -0.251,0 c 0.287,-0.248 0.445,-0.498 0.445,-0.75 0,-5.937 -81.067,-10.75 -181.07,-10.75 -100.002,0 -181.07,4.813 -181.07,10.75 0,0.252 0.158,0.502 0.446,0.75 l -0.446,0 160.474,148.534991 0,168.073 -103.962,74.32 0.255,0 c -0.5,0.27 -0.765,0.544 -0.765,0.821 0,4.102 55.996,7.425 125.07,7.425 69.075,0 125.07,-3.323 125.07,-7.425 0,-0.277 -0.266,-0.552 -0.765,-0.821 l 0.06,0 -103.962,-74.32 0,-168.072 160.471,-148.535991 z m -175.71,119.638991 c -2.895,2.679 -7.631,2.679 -10.526,0 l -77.535,-71.768 c -2.895,-2.679 -2.036,-4.872 1.909,-4.872 l 161.779,0 c 3.944,0 4.804,2.192 1.909,4.872 l -77.536,71.768 z"/></svg>