<svg xmlns="http://www.w3.org/2000/svg" xmlns:svg="http://www.w3.org/2000/svg" id="svg3646" width="64" height="64" version="1.1"><metadata id="metadata3651"/><g id="layer1"><rect style="fill:#fecb00;fill-opacity:1;stroke:none;stroke-width:.5;stroke-miterlimit:4;stroke-dasharray:none" id="rect3656" width="64.364" height="64" x="0" y="0" rx="6.601" ry="8.023"/><path style="fill:none;stroke:#a3a3a3;stroke-width:.5;stroke-linecap:butt;stroke-linejoin:miter;stroke-opacity:1;stroke-miterlimit:4;stroke-dasharray:none" id="path4197-3" d="M 4.2760698,18.390932 C 17.693215,29.541568 47.802016,24.335727 52.269385,22.230116"/><path style="fill:none;stroke:#000;stroke-width:1px;stroke-linecap:butt;stroke-linejoin:miter;stroke-opacity:1" id="path4263" d="m 3.2727273,44.727273 5.6363636,-29.636364 3.0909091,0 6,29.454546"/><path style="fill:none;stroke:#000;stroke-width:1px;stroke-linecap:butt;stroke-linejoin:miter;stroke-opacity:1" id="path4265" d="m 3.8181818,18.727273 13.7727272,-1e-6"/><path style="fill:none;stroke:#000;stroke-width:1px;stroke-linecap:butt;stroke-linejoin:miter;stroke-opacity:1" id="path4267" d="m 3.0909091,23.363636 15.4999999,0"/><path style="fill:none;stroke:#000;stroke-width:.40356085px;stroke-linecap:butt;stroke-linejoin:miter;stroke-opacity:1" id="path4263-3" d="m 51.843338,32.843675 2.274616,-11.960077 1.247369,0 2.421366,11.886703"/><path style="fill:none;stroke:#000;stroke-width:.40356085px;stroke-linecap:butt;stroke-linejoin:miter;stroke-opacity:1" id="path4265-9" d="m 52.063462,22.351093 5.558134,-10e-7"/><path style="fill:none;stroke:#000;stroke-width:.40356085px;stroke-linecap:butt;stroke-linejoin:miter;stroke-opacity:1" id="path4267-3" d="m 51.769963,24.222148 6.255194,0"/><path style="fill:none;stroke:#a3a3a3;stroke-width:.5;stroke-linecap:butt;stroke-linejoin:miter;stroke-miterlimit:4;stroke-opacity:1;stroke-dasharray:none" id="path4197-3-9" d="M 4.0942516,23.730029 C 17.511397,34.880665 47.529289,26.311188 51.996658,24.205577"/><path style="fill:none;stroke:#a3a3a3;stroke-width:.5;stroke-linecap:butt;stroke-linejoin:miter;stroke-miterlimit:4;stroke-opacity:1;stroke-dasharray:none" id="path4197-3-9-2" d="m 14.912433,18.548211 c 13.417145,11.150636 37.616855,5.853886 42.084224,3.748275"/><path style="fill:none;stroke:#a3a3a3;stroke-width:.5;stroke-linecap:butt;stroke-linejoin:miter;stroke-miterlimit:4;stroke-opacity:1;stroke-dasharray:none" id="path4197-3-9-6" d="m 15.457888,23.63912 c 13.417145,11.150636 36.980491,2.672068 41.44786,0.566457"/></g></svg>